# xmcd
#
# Track frame offsets:
#	150
#	11137
#	20742
#	31955
#	40050
#	50488
#	63586
#	76324
#	87154
#	99376
#	110451
#	121568
#	135441
#	147190
#	157558
#	167913
#	179069
#	191559
#	203964
#	215096
#	227528
#	237625
#	248424
#	262140
#	272885
#	285141
#	295486
#	306206
#
# Disc length: 4226 seconds
#
# Revision: 1
# Processed by: cddbd v1.4PL0 Copyright (c) Steve Scherf et al.
# Submitted via: audiograbber 1.80.04
#
DISCID=8e10801c
DTITLE=Osborne Brothers - Bluegrass 1956-68 vol 3
DYEAR=1900
DGENRE=
TTITLE0=Take This Hammer
TTITLE1=Don'T Even Look At Me
TTITLE2=The Cuckoo Bird
TTITLE3=Bluegrass Express
TTITLE4=Me And My Old Banjo
TTITLE5=Pathway Of Teardrops
TTITLE6=Gotta Travel On
TTITLE7=Salty Dog Blues
TTITLE8=Kentucky
TTITLE9=Bugle On The Banjo (Bugle Call Rag)
TTITLE10=Cotton Fields
TTITLE11=Faded Lvoe
TTITLE12=This Heart Of Mine (Can Never Say Goodbye)
TTITLE13=Charlie Cotton
TTITLE14=I'Ll Be Alright Tomorrow
TTITLE15=Cut The Cornbread
TTITLE16=Hey Hey Bartender
TTITLE17=Honesome Day
TTITLE18=Big Spike Hammer
TTITLE19=Memories
TTITLE20=I Know What It Means To Be Lonesome
TTITLE21=Up This Hill And Down
TTITLE22=In The Pines
TTITLE23=One Tear
TTITLE24=Making Plans
TTITLE25=Yesterday'S Gone
TTITLE26=Footprints In The Snow
TTITLE27=Sure-Fire
EXTD=
EXTT0=
EXTT1=
EXTT2=
EXTT3=
EXTT4=
EXTT5=
EXTT6=
EXTT7=
EXTT8=
EXTT9=
EXTT10=
EXTT11=
EXTT12=
EXTT13=
EXTT14=
EXTT15=
EXTT16=
EXTT17=
EXTT18=
EXTT19=
EXTT20=
EXTT21=
EXTT22=
EXTT23=
EXTT24=
EXTT25=
EXTT26=
EXTT27=
PLAYORDER=
